<?xml version="1.0" encoding="iso-8859-1"?><!-- Generator: Adobe Illustrator 23.0.0, SVG Export Plug-In . SVG Version: 6.00 Build 0)  --><svg xmlns="http://www.w3.org/2000/svg" xmlns:xlink="http://www.w3.org/1999/xlink" viewBox="0 0 64 64" width="512px" height="512px"><g><path style="fill:#F283A5;" d="M46.637,42.67C55.946,40.96,63,32.804,63,23V13c0-0.223-0.037-0.438-0.104-0.638   c-0.356-1.058-1.659-1.459-2.638-0.923C59.183,12.028,57.092,13,55,13c-3,0-5.94-1.339-8.757-3.745C42.408,5.981,37.439,4,32,4   c-5.439,0-10.409,1.981-14.243,5.255C14.94,11.661,12,13,9,13c-2.259,0-4.517-1.134-5.496-1.694   c-0.502-0.288-1.129-0.293-1.611,0.028C1.355,11.692,1,12.305,1,13v10c0,9.776,7.014,17.913,16.283,19.655"/></g><g><g><path style="fill:#ED7899;" d="M63,23V13c0-0.043-0.017-0.081-0.02-0.123C60.228,12.888,58,15.12,58,17.875V23    c0,7.242-5.159,13.446-12.267,14.752c-2.411,0.443-4.089,2.549-4.088,4.916l4.992,0.002C55.946,40.96,63,32.804,63,23z"/></g><g><path style="fill:#ED7899;" d="M17.283,42.655l4.993,0.003c0.003-2.361-1.665-4.465-4.069-4.917C11.134,36.412,6,30.212,6,23    v-4.938c0-2.762-2.239-5-5-5V23C1,32.776,8.014,40.913,17.283,42.655z"/></g></g><g><path style="fill:#8D6C9F;" d="M46.817,43.653l-0.361-1.967C55.463,40.032,62,32.173,62,23V13c0-0.11-0.018-0.218-0.052-0.319   c-0.081-0.241-0.271-0.359-0.416-0.416c-0.255-0.1-0.553-0.081-0.794,0.051C59.591,12.945,57.32,14,55,14   c-3.146,0-6.311-1.34-9.406-3.984C41.806,6.781,36.978,5,32,5s-9.806,1.781-13.594,5.016C15.311,12.66,12.146,14,9,14   c-2.438,0-4.802-1.144-5.993-1.826c-0.186-0.106-0.405-0.109-0.559-0.008C2.167,12.353,2,12.665,2,13v10   c0,9.135,6.505,16.988,15.468,18.672l-0.369,1.966C7.191,41.776,0,33.096,0,23V13c0-1.007,0.501-1.941,1.34-2.499   c0.79-0.525,1.811-0.551,2.661-0.063C4.821,10.908,6.95,12,9,12c2.656,0,5.384-1.179,8.107-3.505C21.258,4.952,26.547,3,32,3   s10.742,1.952,14.893,5.495C49.616,10.821,52.344,12,55,12c1.874,0,3.798-0.901,4.777-1.438c0.754-0.413,1.685-0.471,2.483-0.16   c0.755,0.295,1.332,0.893,1.583,1.641C63.947,12.351,64,12.672,64,13v10C64,33.139,56.773,41.825,46.817,43.653z"/></g><g><path style="fill:#FFF8EE;" d="M44.892,21.014c-0.573-2.564-3.334-4.302-6.221-3.152c-1.678,0.668-2.658,2.359-2.67,4.165   c-0.016,2.363-2.079,4.239-4.504,3.942c-1.982-0.242-3.468-2.038-3.496-4.034c-0.035-2.455-2.036-4.435-4.5-4.435   c-1.953,0-3.615,1.244-4.238,2.982c-0.4,1.115-0.78,2.238-1.344,3.28c-1.084,2.004-1.817,4.25-1.907,6.617   c-0.086,2.265,0.3,4.429,1.067,6.404c0.732,1.885,0.858,3.951,0.268,5.885c-0.237,0.775-0.359,1.599-0.346,2.455   C17.029,46.978,18,50,22,52c3.225,1.612,6,9,10,9s5-2.706,5-3c0-1,3-5,5-6s4.972-5.022,4.999-6.883   c0.012-0.85-0.109-1.669-0.343-2.439c-0.6-1.973-0.429-4.07,0.305-5.998C47.632,34.915,48,33.001,48,31   c0-2.68-0.794-5.187-2.012-7.399C45.534,22.778,45.097,21.932,44.892,21.014z"/></g><g><path style="fill:#F283A5;" d="M24,38c-0.553,0-1-0.448-1-1v-8c0-0.552,0.447-1,1-1s1,0.448,1,1v8C25,37.552,24.553,38,24,38z"/></g><g><path style="fill:#F283A5;" d="M40,38c-0.553,0-1-0.448-1-1v-8c0-0.552,0.447-1,1-1s1,0.448,1,1v8C41,37.552,40.553,38,40,38z"/></g><g><path style="fill:#F283A5;" d="M40,48c-0.553,0-1-0.448-1-1s0.447-1,1-1c1.103,0,2-0.897,2-2s-0.897-2-2-2c-0.553,0-1-0.448-1-1   s0.447-1,1-1c2.206,0,4,1.794,4,4S42.206,48,40,48z"/></g><g><path style="fill:#F283A5;" d="M24,48c-2.206,0-4-1.794-4-4s1.794-4,4-4c0.553,0,1,0.448,1,1s-0.447,1-1,1c-1.103,0-2,0.897-2,2   s0.897,2,2,2c0.553,0,1,0.448,1,1S24.553,48,24,48z"/></g><g><path style="fill:#8D6C9F;" d="M32,62v-2c1.777,0,3.351-0.938,4.105-2.447c1.231-2.461,2.12-4.238,5.339-6.387   c3.064-2.047,4.555-4.025,4.555-6.049c0-0.914-0.224-1.599-0.461-2.324C45.286,42.021,45,41.145,45,40   c0-0.972,0.364-2.215,0.785-3.654C46.354,34.403,47,32.2,47,30c0-2.831-0.984-5.66-2.925-8.409C43.448,20.703,41.541,18,39,18   c-1.66,0-1.983,1.397-2,3.976C36.981,24.772,34.738,27,32,27v-2c1.644,0,2.989-1.337,3-2.98c0.012-1.841,0.038-6.02,4-6.02   c3.577,0,5.935,3.34,6.709,4.438C47.893,23.53,49,26.748,49,30c0,2.487-0.718,4.938-1.295,6.909C47.343,38.146,47,39.315,47,40   c0,0.827,0.204,1.45,0.439,2.171c0.263,0.803,0.56,1.713,0.56,2.945c0,2.743-1.78,5.266-5.443,7.712   c-2.778,1.855-3.447,3.191-4.66,5.616C36.799,60.639,34.54,62,32,62z"/></g><g><path style="fill:#8D6C9F;" d="M32,62c-2.54,0-4.799-1.361-5.895-3.553c-1.214-2.428-1.883-3.764-4.661-5.619   c-3.661-2.445-5.442-4.968-5.443-7.711c-0.001-1.233,0.297-2.144,0.56-2.947C16.796,41.449,17,40.826,17,40   c0-0.685-0.343-1.854-0.705-3.091C15.718,34.938,15,32.487,15,30c0-3.252,1.107-6.47,3.292-9.562C19.065,19.34,21.423,16,25,16   c3.962,0,3.988,4.179,4,5.963c0.011,1.7,1.356,3.037,3,3.037v2c-2.738,0-4.981-2.228-5-4.966C26.983,19.397,26.66,18,25,18   c-2.541,0-4.448,2.703-5.074,3.591C17.984,24.34,17,27.169,17,30c0,2.2,0.646,4.403,1.215,6.346C18.636,37.785,19,39.028,19,40   c0,1.145-0.286,2.02-0.538,2.792c-0.237,0.725-0.461,1.41-0.461,2.324c0.001,2.024,1.49,4.003,4.555,6.049   c3.219,2.149,4.107,3.926,5.337,6.384C28.649,59.062,30.223,60,32,60V62z"/></g><g><g><path style="fill:none;" d="M17.223,37.522C10.663,35.827,6,29.874,6,23V12.583"/></g><g><g><g><path style="fill:#8D6C9F;" d="M12.752,37.706c-0.176,0-0.354-0.046-0.515-0.144c-0.474-0.285-0.626-0.899-0.341-1.373      l1.032-1.713c0.284-0.473,0.899-0.625,1.372-0.34c0.474,0.285,0.626,0.899,0.341,1.373l-1.032,1.713      C13.422,37.533,13.091,37.706,12.752,37.706z"/></g></g><g><g><path style="fill:#8D6C9F;" d="M8.462,33.935c-0.296,0-0.588-0.13-0.785-0.379c-0.343-0.433-0.27-1.062,0.164-1.405l1.568-1.241      c0.435-0.344,1.062-0.268,1.404,0.164c0.343,0.433,0.27,1.062-0.164,1.405l-1.568,1.241C8.897,33.865,8.679,33.935,8.462,33.935      z"/></g></g><g><g><path style="fill:#8D6C9F;" d="M5.775,28.894c-0.423,0-0.815-0.271-0.952-0.695c-0.169-0.525,0.12-1.089,0.646-1.258      l1.904-0.612c0.523-0.169,1.089,0.121,1.258,0.646c0.169,0.525-0.12,1.089-0.646,1.258l-1.904,0.612      C5.979,28.878,5.877,28.894,5.775,28.894z"/></g></g><g><g><path style="fill:#8D6C9F;" d="M7,23.278H5c-0.553,0-1-0.448-1-1s0.447-1,1-1h2c0.553,0,1,0.448,1,1S7.553,23.278,7,23.278z"/></g></g><g><g><path style="fill:#8D6C9F;" d="M7,17.892H5c-0.553,0-1-0.448-1-1s0.447-1,1-1h2c0.553,0,1,0.448,1,1S7.553,17.892,7,17.892z"/></g></g></g></g><g><g><path style="fill:none;" d="M58,13v10.417c0,6.874-4.663,12.827-11.223,14.522"/></g><g><g><g><path style="fill:#8D6C9F;" d="M59,18.309h-2c-0.553,0-1-0.448-1-1s0.447-1,1-1h2c0.553,0,1,0.448,1,1S59.553,18.309,59,18.309z      "/></g></g><g><g><path style="fill:#8D6C9F;" d="M59,23.695h-2c-0.553,0-1-0.448-1-1s0.447-1,1-1h2c0.553,0,1,0.448,1,1S59.553,23.695,59,23.695z      "/></g></g><g><g><path style="fill:#8D6C9F;" d="M58.225,29.311c-0.102,0-0.204-0.016-0.306-0.048l-1.904-0.612      c-0.526-0.169-0.815-0.732-0.646-1.258c0.17-0.526,0.733-0.814,1.258-0.646l1.904,0.612c0.526,0.169,0.815,0.732,0.646,1.258      C59.04,29.041,58.647,29.311,58.225,29.311z"/></g></g><g><g><path style="fill:#8D6C9F;" d="M55.538,34.352c-0.217,0-0.436-0.07-0.619-0.216l-1.568-1.241      c-0.434-0.343-0.507-0.972-0.164-1.405c0.342-0.432,0.971-0.508,1.404-0.164l1.568,1.241c0.434,0.343,0.507,0.972,0.164,1.405      C56.126,34.222,55.834,34.352,55.538,34.352z"/></g></g><g><g><path style="fill:#8D6C9F;" d="M51.248,38.122c-0.339,0-0.67-0.172-0.857-0.484l-1.032-1.713      c-0.285-0.473-0.133-1.087,0.34-1.373c0.475-0.286,1.088-0.133,1.373,0.34l1.032,1.713c0.285,0.473,0.133,1.087-0.34,1.373      C51.602,38.076,51.424,38.122,51.248,38.122z"/></g></g></g></g><g><path style="fill:#F9DD8F;" d="M20.291,34.383C20.115,34.893,20,35.431,20,36c0,2.761,2.239,5,5,5c1.67,0,3.139-0.826,4.047-2.084   C25.692,38.474,22.396,37.113,20.291,34.383z"/></g><g><path style="fill:#F9DD8F;" d="M34.921,38.877C35.827,40.158,37.312,41,39,41c2.761,0,5-2.239,5-5c0-0.483-0.09-0.94-0.218-1.381   C41.299,36.729,38.125,38.357,34.921,38.877z"/></g><g><path style="fill:#8D6C9F;" d="M25,42c-3.309,0-6-2.691-6-6c0-0.81,0.158-1.596,0.472-2.336l1.842,0.779   C21.105,34.936,21,35.459,21,36c0,2.206,1.794,4,4,4c1.392,0,2.662-0.706,3.398-1.889l1.697,1.057C28.993,40.941,27.088,42,25,42z"/></g><g><path style="fill:#8D6C9F;" d="M39,42c-2.042,0-3.926-1.024-5.037-2.739l1.678-1.088C36.383,39.317,37.639,40,39,40   c2.206,0,4-1.794,4-4c0-0.52-0.099-1.025-0.292-1.503l1.854-0.752C44.853,34.462,45,35.221,45,36C45,39.309,42.309,42,39,42z"/></g><g><path style="fill:#8D6C9F;" d="M32,40c-4.81,0-9.566-1.985-12.725-5.312C18.809,34.161,18.506,34,18,34   c-0.414,0-0.811,0.125-1.146,0.361l-1.15-1.637C16.379,32.25,17.173,32,18,32c1.393,0,2.201,0.716,2.751,1.339   C23.472,36.204,27.792,38,32,38c4.201,0,8.522-1.797,11.275-4.689C43.916,32.721,44.837,32,46,32c0.847,0,1.655,0.261,2.339,0.754   l-1.17,1.622C46.827,34.13,46.424,34,46,34c-0.35,0-0.783,0.241-1.324,0.737C41.559,38.015,36.802,40,32,40z"/></g><g><path style="fill:#F283A5;" d="M38,48c-1,0-3,3-3,4c0,1.657-1.343,3-3,3c-1.657,0-3-1.343-3-3c0-1-2-4-3-4"/></g><g><path style="fill:#8D6C9F;" d="M32,56c-2.206,0-4-1.794-4-4c0-1.896-3.237-3.618-4.371-4.071c-0.513-0.206-0.763-0.787-0.558-1.3   s0.79-0.759,1.3-0.557C24.947,46.302,30,48.426,30,52c0,1.103,0.897,2,2,2s2-0.897,2-2c0-3.574,5.053-5.698,5.629-5.929   c0.51-0.204,1.093,0.044,1.299,0.557c0.205,0.512-0.043,1.094-0.556,1.3C39.238,48.385,36,50.113,36,52C36,54.206,34.206,56,32,56z   "/></g><g><path style="fill:#8D6C9F;" d="M32,49c-2.538,0-5.229-0.335-8.225-1.025c-0.538-0.124-0.874-0.661-0.75-1.199   s0.656-0.872,1.199-0.75C27.071,46.681,29.614,47,32,47c2.371,0,4.915-0.319,7.776-0.975c0.536-0.127,1.074,0.212,1.198,0.751   c0.123,0.539-0.213,1.075-0.751,1.198C37.214,48.665,34.523,49,32,49z"/></g><g><circle style="fill:#F283A5;" cx="32" cy="42" r="3"/></g><g><circle style="fill:#8D6C9F;" cx="24" cy="38" r="1"/></g><g><circle style="fill:#8D6C9F;" cx="40" cy="38" r="1"/></g><g><path style="fill:#8D6C9F;" d="M32,46c-2.206,0-4-1.794-4-4s1.794-4,4-4s4,1.794,4,4S34.206,46,32,46z M32,40c-1.103,0-2,0.897-2,2   s0.897,2,2,2s2-0.897,2-2S33.103,40,32,40z"/></g></svg>